<?xml version="1.0" encoding="utf-8"?>
<!-- Generator: Adobe Illustrator 19.0.0, SVG Export Plug-In . SVG Version: 6.00 Build 0)  -->
<svg version="1.1" xmlns="http://www.w3.org/2000/svg" xmlns:xlink="http://www.w3.org/1999/xlink" x="0px" y="0px"
	 viewBox="0 0 880 232" style="enable-background:new 0 0 880 232;" xml:space="preserve">
<style type="text/css">
	.st0{display:none;}
	.st1{display:inline;fill:#3399CC;}
	.st2{fill:#FFFFFF;}
	.st3{fill:#3399CC;}
	.st4{fill:none;stroke:#FFFFFF;stroke-miterlimit:10;}
	.st5{fill:none;stroke:#FFFFFF;stroke-width:2;stroke-miterlimit:10;}
	.st6{fill:#FFFFFF;stroke:#FFFFFF;stroke-width:2;stroke-linejoin:round;stroke-miterlimit:10;}
	.st7{fill:none;stroke:#FFFFFF;stroke-width:3;stroke-linecap:round;stroke-linejoin:round;}
	.st8{fill:none;stroke:#FFFFFF;stroke-width:3;stroke-linecap:round;stroke-linejoin:round;stroke-dasharray:0,8;}
	.st9{fill:#18557D;stroke:#FFFFFF;stroke-miterlimit:10;}
	
		.st10{fill:none;stroke:#FFFFFF;stroke-width:3;stroke-linecap:round;stroke-linejoin:round;stroke-miterlimit:10;stroke-dasharray:0,8;}
	.st11{fill:none;stroke:#FFFFFF;stroke-width:2;stroke-linecap:round;stroke-miterlimit:10;}
	.st12{fill:none;stroke:#FFFFFF;stroke-width:0.7;stroke-linecap:round;stroke-miterlimit:10;}
	
		.st13{fill:none;stroke:#FFFFFF;stroke-width:2;stroke-linecap:round;stroke-linejoin:round;stroke-miterlimit:10;stroke-dasharray:6,8;}
	.st14{fill:none;stroke:#FFFFFF;stroke-linecap:round;stroke-miterlimit:10;}
	.st15{fill:#336699;stroke:#336699;stroke-width:2;stroke-linecap:square;stroke-linejoin:round;stroke-miterlimit:10;}
	.st16{fill:none;stroke:#336699;stroke-linecap:round;stroke-linejoin:round;stroke-miterlimit:10;}
	.st17{fill:#FFFFFF;stroke:#FFFFFF;stroke-width:3;stroke-miterlimit:10;}
	.st18{fill:#153F78;stroke:#153F78;stroke-width:2;stroke-linecap:square;stroke-linejoin:round;stroke-miterlimit:10;}
	.st19{fill:#336699;stroke:#336699;stroke-linecap:square;stroke-linejoin:round;stroke-miterlimit:10;}
</style>
<g id="Fondo">
</g>
<g id="Header" class="st0">
	<rect x="1790" y="91" class="st1" width="1280" height="91"/>
</g>
<g id="Fondo_Logo">
</g>
<g id="Logo__x26__Header_Text">
</g>
<g id="Que_somos">
	<circle class="st2" cx="435.8" cy="117.6" r="71.7"/>
	<circle class="st2" cx="108.8" cy="116.7" r="83.5"/>
	<g>
		<path class="st3" d="M89.8,120.2v9.9h-2.4v-9.8l-8.3-16.5h2.8l6,12.3c0.1,0.1,0.2,0.4,0.3,0.7c0.1,0.3,0.3,0.7,0.4,1.1h0.1
			c0.1-0.2,0.2-0.5,0.3-0.8c0.1-0.3,0.3-0.6,0.5-1l6.3-12.3h2.6L89.8,120.2z"/>
		<path class="st3" d="M106.4,130.5c-1.4,0-2.6-0.2-3.8-0.7s-2.1-1.1-2.8-2c-0.8-0.9-1.4-1.9-1.8-3.1c-0.4-1.2-0.6-2.5-0.6-3.9
			c0-1.6,0.2-3,0.7-4.2c0.4-1.2,1.1-2.3,1.9-3.1c0.8-0.9,1.8-1.5,2.9-2c1.1-0.5,2.4-0.7,3.9-0.7c1.4,0,2.6,0.2,3.7,0.7
			c1.1,0.4,2,1.1,2.8,1.9c0.8,0.8,1.3,1.9,1.7,3.1c0.4,1.2,0.6,2.6,0.6,4.1c0,1.5-0.2,2.8-0.6,4c-0.4,1.2-1,2.2-1.8,3.1
			c-0.8,0.9-1.7,1.5-2.9,2S107.8,130.5,106.4,130.5z M106.6,112.9c-1,0-2,0.2-2.8,0.5c-0.8,0.4-1.5,0.9-2.1,1.6
			c-0.6,0.7-1,1.5-1.4,2.5c-0.3,1-0.5,2.1-0.5,3.3c0,1.2,0.2,2.2,0.5,3.2s0.8,1.7,1.3,2.4c0.6,0.7,1.3,1.2,2.1,1.6
			c0.8,0.4,1.8,0.5,2.8,0.5c1.1,0,2-0.2,2.8-0.5c0.8-0.3,1.5-0.9,2.1-1.5c0.6-0.7,1-1.5,1.3-2.4c0.3-1,0.4-2.1,0.4-3.3
			c0-2.5-0.6-4.5-1.7-5.8C110.3,113.5,108.7,112.9,106.6,112.9z"/>
		<path class="st3" d="M132.5,130.1v-3.2h-0.1c-1.3,2.4-3.2,3.6-5.9,3.6c-4.5,0-6.7-2.7-6.7-8.2v-11h2.3v10.6c0,2.3,0.4,3.9,1.2,5
			c0.8,1.1,2,1.6,3.7,1.6c0.8,0,1.5-0.2,2.2-0.5c0.7-0.3,1.2-0.8,1.7-1.3c0.5-0.6,0.9-1.3,1.1-2c0.3-0.8,0.4-1.7,0.4-2.6v-10.7h2.3
			v18.8H132.5z"/>
	</g>
	<path class="st4" d="M518.7,117.6c0,45.8-37.1,82.8-82.8,82.8c-45.8,0-82.8-37.1-82.8-82.8c0-45.8,37.1-82.8,82.8-82.8
		C481.6,34.8,518.7,71.9,518.7,117.6z"/>
	<circle class="st4" cx="108.8" cy="116.7" r="96.5"/>
	<circle class="st2" cx="764.4" cy="116.7" r="83.5"/>
	<g>
		<path class="st3" d="M702.4,125.3c0.4,0.3,0.9,0.6,1.4,0.9c0.5,0.3,1.1,0.5,1.6,0.7c0.5,0.2,1.1,0.3,1.7,0.4s1.1,0.1,1.6,0.1
			c2,0,3.4-0.4,4.4-1.1s1.5-1.8,1.5-3.3c0-0.7-0.1-1.3-0.3-1.8c-0.2-0.5-0.6-1-1.1-1.4c-0.5-0.4-1.1-0.9-1.8-1.3
			c-0.7-0.4-1.6-0.9-2.6-1.5c-1.1-0.6-2.1-1.2-2.8-1.7c-0.8-0.5-1.4-1.1-1.9-1.6c-0.5-0.6-0.9-1.2-1.1-1.8s-0.4-1.4-0.4-2.2
			c0-1,0.2-2,0.7-2.8c0.4-0.8,1-1.5,1.8-2.1c0.8-0.6,1.6-1,2.7-1.3c1-0.3,2.1-0.5,3.3-0.5c2,0,3.7,0.3,5.1,0.8v2.7
			c-1.5-0.9-3.3-1.3-5.4-1.3c-0.8,0-1.5,0.1-2.2,0.3c-0.7,0.2-1.3,0.5-1.8,0.8c-0.5,0.4-0.9,0.8-1.2,1.3c-0.3,0.5-0.4,1.2-0.4,1.9
			c0,0.7,0.1,1.3,0.3,1.7s0.5,0.9,1,1.4c0.4,0.4,1,0.9,1.7,1.3c0.7,0.4,1.6,0.9,2.6,1.5c1.1,0.6,2,1.1,2.8,1.7
			c0.8,0.5,1.5,1.1,2,1.7c0.5,0.6,0.9,1.2,1.2,1.9c0.3,0.7,0.4,1.4,0.4,2.2c0,1.1-0.2,2.1-0.6,3c-0.4,0.9-1,1.6-1.8,2.1
			c-0.8,0.6-1.7,1-2.7,1.3c-1,0.3-2.2,0.4-3.5,0.4c-0.4,0-0.9,0-1.5-0.1c-0.6-0.1-1.1-0.2-1.7-0.3c-0.6-0.1-1.1-0.3-1.7-0.5
			c-0.5-0.2-0.9-0.4-1.3-0.6V125.3z"/>
		<path class="st3" d="M729.6,129.5c-1.4,0-2.6-0.2-3.7-0.7c-1.1-0.5-2-1.1-2.8-1.9c-0.8-0.8-1.4-1.8-1.8-3
			c-0.4-1.2-0.6-2.5-0.6-3.9c0-1.5,0.2-2.9,0.7-4.1c0.4-1.2,1.1-2.2,1.9-3.1c0.8-0.8,1.8-1.5,2.9-1.9c1.1-0.4,2.4-0.7,3.8-0.7
			c1.3,0,2.5,0.2,3.6,0.7c1.1,0.4,2,1.1,2.7,1.9c0.7,0.8,1.3,1.8,1.7,3s0.6,2.5,0.6,4.1c0,1.4-0.2,2.8-0.6,3.9
			c-0.4,1.2-1,2.2-1.8,3.1c-0.8,0.9-1.7,1.5-2.8,2C732.2,129.3,731,129.5,729.6,129.5z M729.8,112.1c-1,0-1.9,0.2-2.7,0.5
			c-0.8,0.3-1.5,0.9-2.1,1.5c-0.6,0.7-1,1.5-1.3,2.5c-0.3,1-0.5,2.1-0.5,3.3c0,1.2,0.2,2.2,0.5,3.1c0.3,0.9,0.8,1.7,1.3,2.4
			c0.6,0.7,1.3,1.2,2.1,1.5c0.8,0.4,1.7,0.5,2.7,0.5c1,0,2-0.2,2.7-0.5s1.5-0.8,2-1.5c0.6-0.7,1-1.5,1.3-2.4s0.4-2,0.4-3.3
			c0-2.5-0.6-4.4-1.7-5.7C733.4,112.8,731.8,112.1,729.8,112.1z"/>
		<path class="st3" d="M743.2,129.1v-27.4h2.3v27.4H743.2z"/>
		<path class="st3" d="M763.6,129.1v-3.1h-0.1c-1.3,2.4-3.2,3.6-5.8,3.6c-4.4,0-6.6-2.7-6.6-8.1v-10.9h2.3V121
			c0,2.2,0.4,3.9,1.2,4.9c0.8,1.1,2,1.6,3.6,1.6c0.8,0,1.5-0.2,2.2-0.5c0.7-0.3,1.2-0.7,1.7-1.3c0.5-0.6,0.8-1.2,1.1-2
			c0.3-0.8,0.4-1.6,0.4-2.6v-10.6h2.3v18.5H763.6z"/>
		<path class="st3" d="M779.8,128.9c-0.8,0.4-1.7,0.6-2.6,0.6c-3,0-4.5-1.7-4.5-5.2v-11.7h-3.3v-2h3.3v-4.7l2.3-0.8v5.4h4.8v2h-4.8
			v11.3c0,1.3,0.2,2.2,0.6,2.7c0.4,0.6,1.1,0.8,2.1,0.8c0.7,0,1.4-0.2,2.1-0.7V128.9z"/>
		<path class="st3" d="M784.8,105.9c-0.4,0-0.8-0.2-1.2-0.5c-0.3-0.3-0.5-0.7-0.5-1.2c0-0.5,0.2-0.9,0.5-1.2s0.7-0.5,1.2-0.5
			c0.2,0,0.4,0,0.7,0.1c0.2,0.1,0.4,0.2,0.5,0.3c0.2,0.1,0.3,0.3,0.4,0.5s0.1,0.4,0.1,0.7c0,0.2,0,0.4-0.1,0.7
			c-0.1,0.2-0.2,0.4-0.4,0.5c-0.2,0.2-0.3,0.3-0.5,0.4C785.2,105.8,785,105.9,784.8,105.9z M783.6,129.1v-18.5h2.3v18.5H783.6z"/>
		<path class="st3" d="M799.5,129.5c-1.4,0-2.6-0.2-3.7-0.7c-1.1-0.5-2-1.1-2.8-1.9c-0.8-0.8-1.4-1.8-1.8-3
			c-0.4-1.2-0.6-2.5-0.6-3.9c0-1.5,0.2-2.9,0.7-4.1c0.4-1.2,1.1-2.2,1.9-3.1c0.8-0.8,1.8-1.5,2.9-1.9c1.1-0.4,2.4-0.7,3.8-0.7
			c1.3,0,2.5,0.2,3.6,0.7c1.1,0.4,2,1.1,2.7,1.9c0.7,0.8,1.3,1.8,1.7,3s0.6,2.5,0.6,4.1c0,1.4-0.2,2.8-0.6,3.9
			c-0.4,1.2-1,2.2-1.8,3.1c-0.8,0.9-1.7,1.5-2.8,2C802.1,129.3,800.9,129.5,799.5,129.5z M799.7,112.1c-1,0-1.9,0.2-2.7,0.5
			c-0.8,0.3-1.5,0.9-2.1,1.5c-0.6,0.7-1,1.5-1.3,2.5c-0.3,1-0.5,2.1-0.5,3.3c0,1.2,0.2,2.2,0.5,3.1c0.3,0.9,0.8,1.7,1.3,2.4
			c0.6,0.7,1.3,1.2,2.1,1.5c0.8,0.4,1.7,0.5,2.7,0.5c1,0,2-0.2,2.7-0.5s1.5-0.8,2-1.5c0.6-0.7,1-1.5,1.3-2.4s0.4-2,0.4-3.3
			c0-2.5-0.6-4.4-1.7-5.7C803.3,112.8,801.7,112.1,799.7,112.1z"/>
		<path class="st3" d="M825.6,129.1v-10.7c0-4.2-1.5-6.3-4.6-6.3c-0.8,0-1.6,0.2-2.2,0.5c-0.7,0.3-1.3,0.8-1.8,1.3
			c-0.5,0.6-0.9,1.2-1.2,2c-0.3,0.8-0.4,1.6-0.4,2.5v10.6h-2.3v-18.5h2.3v3.2h0.1c1.4-2.4,3.4-3.6,6.2-3.6c2,0,3.6,0.7,4.6,2
			c1.1,1.3,1.6,3.2,1.6,5.7v11.3H825.6z"/>
	</g>
	<circle class="st4" cx="764.4" cy="116.7" r="96.5"/>
	<path class="st5" d="M308.1,176.1"/>
	<path class="st5" d="M198.9,176.1"/>
	<polygon class="st6" points="336.7,174.9 347.8,181 337,187.5 	"/>
	<path class="st5" d="M633.8,180.3"/>
	<g>
		<g>
			<line class="st7" x1="203.4" y1="181.3" x2="203.4" y2="181.3"/>
			<line class="st8" x1="211" y1="181.5" x2="317" y2="181.5"/>
			<line class="st7" x1="321.1" y1="181.3" x2="321.1" y2="181.3"/>
		</g>
	</g>
	<path class="st9" d="M288.9,182.4c0,16.1-13.1,29.2-29.2,29.2c-16.1,0-29.2-13.1-29.2-29.2c0-16.1,13.1-29.2,29.2-29.2
		C275.9,153.2,288.9,166.3,288.9,182.4z"/>
	<g>
		<path class="st2" d="M258.3,190.5c-0.1-0.4-0.3-0.8-0.4-1.4c-0.1-0.6-0.2-1.2-0.2-1.7c0-0.7,0.1-1.4,0.3-2
			c0.2-0.6,0.5-1.2,0.9-1.7s0.8-1,1.3-1.5c0.5-0.5,1-1,1.5-1.5c0.4-0.4,0.8-0.8,1.2-1.2c0.4-0.4,0.7-0.9,1-1.3s0.5-1,0.7-1.5
			c0.2-0.5,0.3-1.1,0.3-1.7c0-0.7-0.1-1.4-0.4-2c-0.3-0.6-0.6-1.1-1.1-1.4c-0.5-0.4-1-0.7-1.7-0.9s-1.3-0.3-2-0.3
			c-1.3,0-2.5,0.2-3.6,0.7c-1.1,0.5-2.1,1.1-3,2v-3c1.1-0.7,2.1-1.3,3.3-1.6c1.1-0.4,2.3-0.5,3.6-0.5c1.1,0,2.1,0.1,3,0.4
			c0.9,0.3,1.7,0.7,2.4,1.3c0.7,0.6,1.2,1.3,1.6,2.1c0.4,0.8,0.6,1.8,0.6,2.9c0,0.8-0.1,1.5-0.3,2.2s-0.5,1.3-0.9,1.9
			c-0.4,0.6-0.8,1.1-1.2,1.6c-0.5,0.5-0.9,1-1.4,1.4c-0.6,0.6-1.2,1.1-1.6,1.6c-0.5,0.5-0.9,0.9-1.2,1.3c-0.3,0.4-0.6,0.9-0.7,1.3
			c-0.2,0.4-0.2,0.9-0.2,1.5c0,0.7,0.1,1.3,0.2,1.8s0.3,1,0.4,1.4H258.3z M259.6,199.4c-0.3,0-0.5,0-0.8-0.1
			c-0.2-0.1-0.5-0.2-0.6-0.4c-0.2-0.2-0.3-0.4-0.5-0.7c-0.1-0.2-0.2-0.5-0.2-0.8c0-0.3,0.1-0.6,0.2-0.8c0.1-0.3,0.3-0.5,0.4-0.6
			c0.2-0.2,0.4-0.3,0.7-0.4c0.3-0.1,0.5-0.2,0.8-0.2c0.3,0,0.5,0.1,0.8,0.1c0.3,0.1,0.5,0.2,0.7,0.4c0.2,0.2,0.3,0.4,0.5,0.7
			c0.1,0.3,0.2,0.5,0.2,0.8c0,0.3-0.1,0.6-0.2,0.8c-0.1,0.3-0.3,0.5-0.5,0.7c-0.2,0.2-0.4,0.3-0.7,0.4
			C260.2,199.4,259.9,199.4,259.6,199.4z"/>
	</g>
	<polygon class="st6" points="657,174.9 668.1,181 657.3,187.5 	"/>
	<polygon class="st6" points="545.9,48.8 534.7,54.9 545.6,61.5 	"/>
	<line class="st10" x1="519" y1="180.5" x2="673" y2="180.5"/>
	<circle class="st9" cx="587.5" cy="181.2" r="30.4"/>
	<path class="st5" d="M534.5,50"/>
	<path class="st5" d="M574.4,54.2"/>
	<line class="st10" x1="673" y1="55.5" x2="533" y2="55.5"/>
	<circle class="st9" cx="615.4" cy="55.1" r="30.4"/>
	<polygon class="st6" points="218.1,48.8 207,54.9 217.8,61.5 	"/>
	<path class="st5" d="M246.7,54.2"/>
	<line class="st10" x1="345" y1="55.5" x2="206" y2="55.5"/>
	<circle class="st9" cx="287.6" cy="55.1" r="30.4"/>
	<path class="st11" d="M273.9,57.2c0,0,8.1,4,11.1,10.9c0,0,7-12.5,19.6-23.4"/>
	<path class="st12" d="M601.3,46.6c0,0,1.8,0.9,2.5,2.4c0,0,1.6-2.8,4.4-5.2"/>
	<path class="st12" d="M601.3,56.6c0,0,1.8,0.9,2.5,2.4c0,0,1.6-2.8,4.4-5.2"/>
	<path class="st12" d="M601.3,66.7c0,0,1.8,0.9,2.5,2.4c0,0,1.6-2.8,4.4-5.2"/>
	<path class="st13" d="M601.7,175.6c3.1,8.2-1,17.3-9.2,20.4c-8.2,3.1-17.3-1-20.3-9.2c-3.1-8.2,1-17.3,9.2-20.4
		C589.5,163.4,598.6,167.5,601.7,175.6z"/>
	<line class="st14" x1="611" y1="45.5" x2="629" y2="45.5"/>
	<line class="st14" x1="611" y1="55.5" x2="629" y2="55.5"/>
	<line class="st14" x1="611" y1="67.5" x2="629" y2="67.5"/>
</g>
<g id="Servicios">
</g>
<g id="Clientes">
</g>
<g id="Contacto">
</g>
<g id="Footer">
</g>
<g id="Menu">
</g>
<g id="Capa_11">
	<g>
		<ellipse class="st15" cx="434.3" cy="136.1" rx="45.8" ry="8.8"/>
		<path class="st16" d="M480.1,131.7c0,0,11.2,4.5-1.8,10.4"/>
		<path class="st16" d="M461.6,146.1c7.5-0.7,14.1-2.9,14.1-2.9"/>
		<path class="st16" d="M390.5,130.8c0,0-10.3,4-4.9,8"/>
		<path class="st16" d="M387.1,139.7c0,0,0.7,0.5,1.1,0.6"/>
		<path class="st3" d="M473.7,134.9c0,0,1.5-1,2.9-3.9c0.9-1.8,5.6-36.7-21.9-39.3c0,0-1,1.2-2.7,0c0,0-22,0-32.9,17.9
			s-26.7,15.2-23.8,1.2c0,0,11-1,18.8-10.6c0,0-12.6-5.1-21.8,3.6c0,0-1.8-2.9-7.1-6.1c-3.5-2.2-4.7-4.4-4.7-4.4s-5.8,11.7,8.3,18.2
			c0,0-2.2,22.9,12.8,27.3C416.4,143,469,140.6,473.7,134.9z"/>
		<ellipse class="st17" cx="457.5" cy="118.8" rx="5.9" ry="7.7"/>
		
			<ellipse transform="matrix(-0.9901 0.1403 -0.1403 -0.9901 931.5369 167.5984)" class="st18" cx="459.9" cy="116.6" rx="3.3" ry="4.9"/>
		<path class="st19" d="M451.2,87.3c0,0-1.2-3.4-5.9-3.1c-4.7,0.4-5.7-4.2-3.1-4.9C444.7,78.7,450.2,82.2,451.2,87.3z"/>
		<path class="st19" d="M453.8,88.3c0,0,1.4-4.8,3.7-5.7c2.3-0.9,5.1,2.3,3.7,4.2C459.9,88.7,457.2,85.4,453.8,88.3z"/>
		<path class="st19" d="M452.3,84.3c0,0-0.9-5.4,1.2-6.2c2.2-0.8,2.3,2.1,1.1,2.9C453.5,81.8,452.3,84.3,452.3,84.3z"/>
	</g>
</g>
</svg>
