<?xml version="1.0" encoding="utf-8"?>
<!-- Generator: Adobe Illustrator 19.0.0, SVG Export Plug-In . SVG Version: 6.00 Build 0)  -->
<svg version="1.1" id="Capa_1" xmlns="http://www.w3.org/2000/svg" xmlns:xlink="http://www.w3.org/1999/xlink" x="0px" y="0px"
	 viewBox="0 0 617.7 236.7" style="enable-background:new 0 0 617.7 236.7;" xml:space="preserve">
<style type="text/css">
	.st0{fill:none;stroke:#367BBF;stroke-width:3;stroke-miterlimit:10;}
	.st1{fill:none;stroke:#367BBF;stroke-width:2;stroke-miterlimit:10;}
	.st2{fill:none;stroke:#69AEE0;stroke-width:2;stroke-miterlimit:10;}
	.st3{fill:#0E2838;stroke:#367BBF;stroke-miterlimit:10;}
	.st4{fill:#69AEE0;stroke:#69AEE0;stroke-miterlimit:10;}
	.st5{fill:none;stroke:#91C6EC;stroke-miterlimit:10;}
	.st6{fill:#020303;}
	.st7{fill:#0D2838;stroke:#367BBF;stroke-miterlimit:10;}
	.st8{fill:#A6B6C5;}
	.st9{font-family:'OpenSans';}
	.st10{font-size:14px;}
	.st11{fill:none;stroke:#A6B6C5;stroke-miterlimit:10;}
	.st12{fill:none;stroke:#A6B6C5;stroke-miterlimit:10;stroke-dasharray:6,4;}
	.st13{font-family:'OpenSans-Semibold';}
	.st14{font-size:20px;}
</style>
<path id="XMLID_34_" class="st0" d="M4.6,31.4c0,0,34,18.3,67.7,12.8c33.6-5.5,93.7-46.4,183.8-32.7c90.1,13.7,91.3,36.8,175.4,20.4
	C515.7,15.5,581.8,52.8,613,45.2"/>
<path id="XMLID_33_" class="st1" d="M196.3,44.7c0,0,25.3-9.1,36.7-6.4c11.3,2.7,45.3,15.5,60.7,6.4"/>
<path id="XMLID_32_" class="st1" d="M406.7,58c15.3,1.3,30.7-0.4,48-6.2"/>
<path id="XMLID_31_" class="st2" d="M15.9,155.5c15-10.2,37.6-9.2,39.3-9.1c18.1,0.2,36.4,7.3,48.8,20.5c6.3,6.7,11.1,15.7,9.8,24.8
	c-1.3,9.1-10.9,17.1-19.6,14.1c-4.5-1.6-7.8-5.5-10.2-9.6c-2.4-4-4.2-8.8-2.9-13.3c1.9-6.4,9.1-9.4,15.7-10.8
	c16.4-3.4,33.8-1.9,49.3,4.3c9.2,3.6,17.8,8.9,27.5,11c9.7,2.2,21.1,0.4,27-7.5c3-4.1,4.2-9.2,4.6-14.2c1.5-16.9-4.9-34.4-16.8-46.5
	c-4.5-4.5-10.1-8.5-16.5-8.8c-6.4-0.4-13.3,4-13.9,10.4c-0.7,7.9,7.8,13.4,15.4,15.7c19.4,6,41,4.4,59.3-4.4
	c20.3-9.8,36.6-28.1,58.6-33.1c20.5-4.7,41.6,3.1,60.6,11.9c19,8.8,38.3,19.1,59.3,19.6"/>
<g id="XMLID_23_">
	<g id="XMLID_26_">
		<path id="XMLID_30_" class="st3" d="M468,127.1c-0.8,0.2-1.6,0.5-2.4,0.7c-2.3,0.4-4.3-0.3-5.8-2.3c-0.8-1-1.8-1.8-2.9-2.5
			c-0.1-0.1-0.2-0.2-0.3-0.2c0,0.1,0.1,0.3,0.1,0.4c0.4,1.7,1,3.4,1.1,5.2c0.1,1.8-0.7,3.3-2.1,4.3c-7,4.8-12.1,11.2-16.3,18.3
			c-1.7,2.9-3.5,3.5-5.9,2.3c-2.7-1.4-3.7-4.2-2.4-6.9c1.4-2.9,3.3-5.6,4.6-8.5l0.1-0.1l-0.1,0.1c-2.4,0.6-4.3,2.1-6.4,3.2
			c-4.9,2.5-9.3,5.7-13.1,9.7c-1.9,2-4.2,2.8-6.9,2.9c-12,0.2-23.8-1.5-35.6-3.5c-0.7-0.1-1-0.6-1.2-1.2c-1.2-3.2,0.1-5.7,3.6-7.1
			c7.5,0.5,15.4-0.2,23.5,0.3c-7.3-4.8-14.3-8-18.3-13.4c1-5.5,3.1-7.3,7.8-6.5c1.7,0.9,2.9,2.5,4.1,3.8c3,3.3,8.9,5.5,14.3,7.9
			c1.1,0.5,1.4,0.9,2.3,0.1c1.2-1,2.4-1.9,3.7-2.9c0.4-0.3,1-0.6,1-1.3l0.1,0c0.3,0,0.7-0.1,0.9-0.4c6.7-2.7,13.4-5.4,20.2-8.1
			c1.8-0.7,3.6-1.6,5.5-1.9c0.3-0.1,0.6-0.2,0.9-0.4l0.1,0c0.8-0.1,1.5-0.2,2.3-0.3c3.6-0.8,7.2-1.8,10.5,1.2
			c-0.3-1.9-0.7-3.6-0.5-5.3c-0.1-0.8,0.1-1.5,0.3-2.2c1.7-5.1,6.1-7.8,11.1-7.4c4.9,0.4,8.9,4.2,9.6,9.2c0.1,0.8,0.4,1.5,1,2
			c0.5,0.4,1.1,0.8,0.9,1.6c-0.3-0.2-0.6-0.4-0.8-0.6c-0.9-1.3-1.8-1.2-3.1-0.5c-2.3,1.3-4.4,2.8-6.1,4.9
			C465.6,124.1,465.7,125.1,468,127.1z"/>
		<path id="XMLID_29_" class="st4" d="M414.7,129.9l-0.1,0c-1.3,0.5-2.6,0.9-3.9,1.5c-1.2,0.5-1.8,0.1-2.2-1
			c-0.5-1.6-1.1-3.3-1.7-4.9c-0.6-1.4-0.1-2.1,1.2-2.7c6.7-2.6,13.4-5.3,20.1-7.9c3.6-1.4,7.3-2.9,10.9-4.3c2.8-1.1,4.4-0.7,6.2,1.7
			c0.6,0.9,1.3,0.5,1.9,0.4c2.5-0.3,5.1-0.9,7.6-0.1c-0.2,0.7-0.4,1.4-0.3,2.2c-2.5,0-5.1-0.1-7.6,0.6c-0.4,0.1-1.1,0-1.1,0.5
			c-0.3,2.1-2,2.6-3.5,3.3l-0.1,0c-0.3,0-0.7,0-0.9,0.4c-1.9,0.3-3.7,1.2-5.5,1.9c-6.7,2.6-13.4,5.4-20.2,8.1
			C415.3,129.5,414.9,129.5,414.7,129.9z"/>
		<path id="XMLID_28_" class="st5" d="M468,127.1c-2.3-2-2.4-3.1-0.4-5.4c1.7-2,3.8-3.5,6.1-4.9c1.2-0.7,2.2-0.8,3.1,0.5
			c0.2,0.3,0.5,0.4,0.8,0.6c0.8,1.4,0.5,2.6-0.6,3.7c-1.7,1.6-3.5,3.3-5.2,5C470.6,127.8,469.4,128,468,127.1z"/>
		<polygon id="XMLID_27_" class="st6" points="435.7,137.9 435.8,137.8 435.7,137.9 		"/>
	</g>
	<path id="XMLID_25_" class="st3" d="M389.5,122.1c0,0-9-7.3-14.3-9.9c-5.3-2.6-10-12.6-10-12.6s-3.4,2.6-4.2,7.4
		c-0.8,4.8-1.7,10.4-4.4,11.4l25.1,10.2C381.7,128.7,381.1,120.3,389.5,122.1z"/>
	<path id="XMLID_24_" class="st7" d="M376.1,141.9c0,0-5.5-1.9-12.6-1.5c-7.1,0.5-13.4-1.3-14.3-1.9c0,0-0.4,3.5,0.5,6.1
		c0.9,2.6,3.6,6.5-0.3,10.7c0,0,6.4-0.4,11.6-2.6c5.2-2.2,12.7-2.5,12.7-2.5S368.8,144.5,376.1,141.9z"/>
</g>
<text id="XMLID_22_" transform="matrix(0.9824 -0.1869 0.1869 0.9824 20.5643 135.4847)" class="st8 st9 st10">1 year </text>
<text id="XMLID_21_" transform="matrix(0.9928 0.1196 -0.1196 0.9928 82.7582 225.3323)" class="st8 st9 st10">2 years</text>
<text id="XMLID_20_" transform="matrix(0.9872 -0.1593 0.1593 0.9872 172.8579 211.8424)" class="st8 st9 st10">3 years</text>
<text id="XMLID_19_" transform="matrix(0.9102 0.4141 -0.4141 0.9102 172.6935 92.4326)" class="st8 st9 st10">4 years </text>
<text id="XMLID_18_" transform="matrix(0.9872 -0.1593 0.1593 0.9872 274.8579 123.8424)" class="st8 st9 st10">5 years</text>
<g id="XMLID_5_">
	<g id="XMLID_13_">
		<line id="XMLID_16_" class="st11" x1="491.5" y1="92.7" x2="491.5" y2="95.7"/>
		<line id="XMLID_15_" class="st12" x1="491.5" y1="99.7" x2="491.5" y2="145.7"/>
		<line id="XMLID_14_" class="st11" x1="491.5" y1="147.7" x2="491.5" y2="150.7"/>
	</g>
</g>
<g id="XMLID_2_">
	<text id="XMLID_91_" transform="matrix(1 0 0 1 506 127.6536)" class="st8 st13 st14">6 years</text>
</g>
</svg>
