<?xml version="1.0" encoding="utf-8"?>
<!-- Generator: Adobe Illustrator 19.0.0, SVG Export Plug-In . SVG Version: 6.00 Build 0)  -->
<svg version="1.1" id="Capa_1" xmlns="http://www.w3.org/2000/svg" xmlns:xlink="http://www.w3.org/1999/xlink" x="0px" y="0px"
	 viewBox="0 0 29 24.3" style="enable-background:new 0 0 29 24.3;" xml:space="preserve">
<style type="text/css">
	.st0{fill-rule:evenodd;clip-rule:evenodd;fill:#FFFFFF;}
</style>
<g>
	<path class="st0" d="M14.5,24.3c-4.1,0-8.2,0-12.3,0c-1.4,0-2.2-0.7-2.2-2.2C0,15.5,0,8.8,0,2.2C0,0.7,0.7,0,2.2,0
		c8.2,0,16.5,0,24.7,0c1.3,0,2.1,0.8,2.1,2c0,6.7,0,13.4,0,20.1c0,1.4-0.7,2.2-2.2,2.2C22.7,24.3,18.6,24.3,14.5,24.3z M14.5,4.3
		C14.5,4.3,14.5,4.3,14.5,4.3c-3.9,0-7.7,0-11.6,0c-0.6,0-1.3,0-1.9,0c-0.3,0-0.4,0.1-0.4,0.4c0,0.3,0,0.5,0,0.8
		c0,5.5,0,11.1,0,16.6c0,1.1,0.5,1.5,1.5,1.5c6.7,0,13.4,0,20.1,0c1.6,0,3.2,0,4.7,0c0.8,0,1.3-0.5,1.3-1.3c0-0.2,0-0.3,0-0.5
		c0-5.6,0-11.2,0-16.9c0-0.6,0-0.6-0.6-0.6C23.4,4.3,18.9,4.3,14.5,4.3z M14.5,3.7c4,0,8,0,12,0c0.5,0,1,0,1.5,0
		c0.3,0,0.4-0.1,0.4-0.4c0-0.4,0-0.7,0-1.1c0-1.2-0.4-1.6-1.6-1.6c-4.9,0-9.9,0-14.8,0c-3.3,0-6.6,0-9.9,0C1.1,0.6,0.6,1.1,0.6,2
		c0,0.3,0,0.7,0,1c0,0.7,0,0.7,0.7,0.7C5.7,3.7,10.1,3.7,14.5,3.7z"/>
	<path class="st0" d="M17.5,7.6c0,0.3-0.1,0.5-0.2,0.7c-1.6,3.5-3.1,7-4.7,10.6c-0.2,0.4-0.3,0.8-0.5,1.2c-0.1,0.2-0.2,0.5-0.5,0.4
		c-0.3-0.1-0.2-0.4-0.1-0.6c0.8-1.8,1.6-3.5,2.3-5.3c1-2.3,2-4.5,3-6.8c0-0.1,0.1-0.2,0.2-0.3c0.1-0.1,0.2-0.2,0.3-0.2
		C17.5,7.3,17.5,7.5,17.5,7.6z"/>
	<path class="st0" d="M10.5,10.1c0.3,0,0.4,0.2,0.3,0.4c-0.1,0.1-0.2,0.2-0.3,0.3c-1.1,0.9-2.3,1.8-3.4,2.7c-0.4,0.3-0.4,0.4,0,0.7
		c1.1,0.9,2.2,1.8,3.4,2.7c0.2,0.2,0.6,0.3,0.3,0.7c-0.3,0.3-0.5,0-0.7-0.2c-1.3-1-2.6-2.1-3.9-3.1c-0.4-0.3-0.4-0.5,0-0.8
		c1.3-1,2.6-2.1,3.9-3.1C10.2,10.2,10.3,10.1,10.5,10.1z"/>
	<path class="st0" d="M18.5,10.1c0.1,0,0.2,0.1,0.3,0.2c1.4,1.1,2.7,2.2,4.1,3.2c0.3,0.3,0.3,0.5,0,0.8c-1.3,1.1-2.7,2.1-4,3.2
		c-0.1,0.1-0.2,0.1-0.3,0.2c-0.1,0-0.3,0-0.3-0.1c-0.1-0.1-0.1-0.2,0-0.3c0.1-0.1,0.2-0.2,0.3-0.3c1.1-0.9,2.2-1.8,3.4-2.7
		c0.5-0.4,0.5-0.4,0-0.8c-1.1-0.9-2.2-1.8-3.4-2.7c-0.1-0.1-0.2-0.2-0.3-0.3C18.1,10.3,18.3,10.1,18.5,10.1z"/>
	<path class="st0" d="M2.5,2.1c0,0.3-0.2,0.4-0.5,0.4C1.8,2.5,1.6,2.3,1.6,2c0-0.3,0.2-0.4,0.5-0.4C2.3,1.6,2.5,1.8,2.5,2.1z"/>
	<path class="st0" d="M3.8,1.6C4,1.6,4.2,1.8,4.2,2c0,0.3-0.2,0.5-0.4,0.5c-0.3,0-0.4-0.2-0.5-0.4C3.3,1.8,3.5,1.7,3.8,1.6z"/>
	<path class="st0" d="M5.9,2c0,0.3-0.2,0.5-0.4,0.5C5.2,2.5,5,2.3,5,2.1c0-0.3,0.2-0.4,0.4-0.5C5.7,1.6,5.9,1.8,5.9,2z"/>
</g>
</svg>
