<?xml version="1.0" encoding="utf-8"?>
<!-- Generator: Adobe Illustrator 19.0.0, SVG Export Plug-In . SVG Version: 6.00 Build 0)  -->
<svg version="1.1" xmlns="http://www.w3.org/2000/svg" xmlns:xlink="http://www.w3.org/1999/xlink" x="0px" y="0px"
	 viewBox="-208 408.6 29 24.3" style="enable-background:new -208 408.6 29 24.3;" xml:space="preserve">
<style type="text/css">
	.st0{fill:#4141CE;}
	.st1{fill:#FFFFFF;}
	.st2{fill-rule:evenodd;clip-rule:evenodd;fill:#FFFFFF;}
	.st3{display:none;}
	.st4{display:inline;fill:#FFFFFF;}
	.st5{display:none;fill:none;stroke:#000000;stroke-miterlimit:10;}
	.st6{display:none;fill:#4141CE;}
</style>
<g id="Software_Development">
	<rect x="-283" y="408.6" class="st0" width="29" height="24.3"/>
	<g>
		<path class="st1" d="M-268.5,432.9c-4.1,0-8.2,0-12.3,0c-1.4,0-2.2-0.7-2.2-2.2c0-6.6,0-13.3,0-19.9c0-1.5,0.7-2.2,2.2-2.2
			c8.2,0,16.5,0,24.7,0c1.3,0,2.1,0.8,2.1,2c0,6.7,0,13.4,0,20.1c0,1.4-0.7,2.2-2.2,2.2C-260.3,432.9-264.4,432.9-268.5,432.9z
			 M-268.5,412.9L-268.5,412.9c-3.9,0-7.7,0-11.6,0c-0.6,0-1.3,0-1.9,0c-0.3,0-0.4,0.1-0.4,0.4c0,0.3,0,0.5,0,0.8
			c0,5.5,0,11.1,0,16.6c0,1.1,0.5,1.5,1.5,1.5c6.7,0,13.4,0,20.1,0c1.6,0,3.2,0,4.7,0c0.8,0,1.3-0.5,1.3-1.3c0-0.2,0-0.3,0-0.5
			c0-5.6,0-11.2,0-16.9c0-0.6,0-0.6-0.6-0.6C-259.6,412.9-264.1,412.9-268.5,412.9z M-268.5,412.3c4,0,8,0,12,0c0.5,0,1,0,1.5,0
			c0.3,0,0.4-0.1,0.4-0.4c0-0.4,0-0.7,0-1.1c0-1.2-0.4-1.6-1.6-1.6c-4.9,0-9.9,0-14.8,0c-3.3,0-6.6,0-9.9,0c-1,0-1.5,0.5-1.5,1.4
			c0,0.3,0,0.7,0,1c0,0.7,0,0.7,0.7,0.7C-277.3,412.3-272.9,412.3-268.5,412.3z"/>
		<path class="st1" d="M-265.5,416.2c0,0.3-0.1,0.5-0.2,0.7c-1.6,3.5-3.1,7-4.7,10.6c-0.2,0.4-0.3,0.8-0.5,1.2
			c-0.1,0.2-0.2,0.5-0.5,0.4c-0.3-0.1-0.2-0.4-0.1-0.6c0.8-1.8,1.6-3.5,2.3-5.3c1-2.3,2-4.5,3-6.8c0-0.1,0.1-0.2,0.2-0.3
			c0.1-0.1,0.2-0.2,0.3-0.2C-265.5,415.9-265.5,416.1-265.5,416.2z"/>
		<path class="st1" d="M-272.5,418.7c0.3,0,0.4,0.2,0.3,0.4c-0.1,0.1-0.2,0.2-0.3,0.3c-1.1,0.9-2.3,1.8-3.4,2.7
			c-0.4,0.3-0.4,0.4,0,0.7c1.1,0.9,2.2,1.8,3.4,2.7c0.2,0.2,0.6,0.3,0.3,0.7c-0.3,0.3-0.5,0-0.7-0.2c-1.3-1-2.6-2.1-3.9-3.1
			c-0.4-0.3-0.4-0.5,0-0.8c1.3-1,2.6-2.1,3.9-3.1C-272.8,418.8-272.7,418.7-272.5,418.7z"/>
		<path class="st1" d="M-264.5,418.7c0.1,0,0.2,0.1,0.3,0.2c1.4,1.1,2.7,2.2,4.1,3.2c0.3,0.3,0.3,0.5,0,0.8c-1.3,1.1-2.7,2.1-4,3.2
			c-0.1,0.1-0.2,0.1-0.3,0.2c-0.1,0-0.3,0-0.3-0.1c-0.1-0.1-0.1-0.2,0-0.3c0.1-0.1,0.2-0.2,0.3-0.3c1.1-0.9,2.2-1.8,3.4-2.7
			c0.5-0.4,0.5-0.4,0-0.8c-1.1-0.9-2.2-1.8-3.4-2.7c-0.1-0.1-0.2-0.2-0.3-0.3C-264.9,418.9-264.7,418.7-264.5,418.7z"/>
		<path class="st1" d="M-280.5,410.7c0,0.3-0.2,0.4-0.5,0.4c-0.2,0-0.4-0.2-0.4-0.5c0-0.3,0.2-0.4,0.5-0.4
			C-280.7,410.2-280.5,410.4-280.5,410.7z"/>
		<path class="st1" d="M-279.2,410.2c0.2,0,0.4,0.2,0.4,0.4c0,0.3-0.2,0.5-0.4,0.5c-0.3,0-0.4-0.2-0.5-0.4
			C-279.7,410.4-279.5,410.3-279.2,410.2z"/>
		<path class="st1" d="M-277.1,410.6c0,0.3-0.2,0.5-0.4,0.5c-0.3,0-0.5-0.2-0.5-0.4c0-0.3,0.2-0.4,0.4-0.5
			C-277.3,410.2-277.1,410.4-277.1,410.6z"/>
	</g>
</g>
<g id="ECommerce">
	<rect x="-247.7" y="408.6" class="st0" width="29" height="24.3"/>
	<g>
		<path class="st2" d="M-233.2,408.6c4.2,0,8.3,0,12.5,0c1.2,0,2,0.8,2,2c0,6.8,0,13.5,0,20.3c0,1.2-0.8,2-2,2c-8.3,0-16.7,0-25.1,0
			c-1.2,0-1.9-0.8-1.9-2c0-6.7,0-13.5,0-20.2c0-1.3,0.8-2.1,2.1-2.1C-241.5,408.6-237.3,408.6-233.2,408.6
			C-233.2,408.6-233.2,408.6-233.2,408.6z M-233.2,432.2C-233.2,432.2-233.2,432.2-233.2,432.2c2.3,0,4.5,0,6.8,0c1.9,0,3.8,0,5.7,0
			c0.9,0,1.4-0.5,1.4-1.4c0-0.2,0-0.4,0-0.6c0-5.6,0-11.1,0-16.7c0-0.6,0-0.6-0.6-0.6c-8.7,0-17.5,0-26.2,0c-0.2,0-0.4,0-0.6,0
			c-0.2,0-0.3,0.1-0.3,0.3c0,0.1,0,0.3,0,0.4c0,5.7,0,11.4,0,17.1c0,1,0.5,1.5,1.5,1.5C-241.5,432.2-237.4,432.2-233.2,432.2z
			 M-233.2,412.3C-233.2,412.3-233.2,412.3-233.2,412.3c4.4,0,8.8,0,13.2,0c0.1,0,0.2,0,0.3,0c0.2,0,0.4-0.1,0.4-0.4
			c0-0.4,0-0.7,0-1.1c0-1.2-0.4-1.6-1.6-1.6c-6,0-12,0-18,0c-2.3,0-4.5,0-6.8,0c-0.9,0-1.4,0.5-1.4,1.4c0,0.3,0,0.7,0,1
			c0,0.7,0,0.7,0.7,0.7C-242,412.3-237.6,412.3-233.2,412.3z"/>
		<path class="st2" d="M-232.5,426.9c-1.2,0-2.4,0-3.6,0c-0.8,0-1.1-0.3-1.3-1c-0.7-3-1.3-5.9-2-8.9c-0.2-0.7-0.2-0.8-1-0.8
			c-0.1,0-0.1,0-0.2,0c-0.2,0-0.5,0-0.4-0.3c0-0.3,0.2-0.3,0.4-0.3c0.2,0,0.5,0,0.7,0c0.5,0.1,0.8,0.3,0.9,0.8
			c0.1,0.3,0.2,0.6,0.2,0.9c0.1,0.4,0.3,0.5,0.6,0.5c2.2,0,4.4,0,6.5,0c1.6,0,3.1,0,4.6,0c0.6,0,0.7,0.1,0.6,0.8
			c-0.4,1.6-0.9,3.2-1.3,4.8c-0.2,0.7-0.5,1-1.2,1c-1.8,0.2-3.6,0.3-5.5,0.5c-0.7,0.1-1.4,0.1-2.2,0.2c-0.2,0-0.5-0.1-0.5,0.3
			c0,0.4,0.2,0.8,0.6,0.8c0.2,0,0.3,0,0.5,0c2.3,0,4.6,0,6.9,0c0.3,0,0.6-0.1,0.6,0.3c0,0.4-0.4,0.3-0.6,0.3
			C-230.1,426.9-231.3,426.9-232.5,426.9z M-232.6,418.4c-1.7,0-3.5,0-5.2,0c-0.3,0-0.5,0-0.4,0.4c0.4,1.8,0.8,3.5,1.2,5.3
			c0.1,0.3,0.2,0.4,0.5,0.3c2.6-0.2,5.2-0.5,7.8-0.7c0.4,0,0.7-0.2,0.8-0.6c0.3-1.4,0.7-2.7,1.1-4.1c0.1-0.6,0.1-0.6-0.5-0.6
			C-229.2,418.4-230.9,418.4-232.6,418.4z"/>
		<path class="st2" d="M-229.7,427.7c0.6,0,1.1,0.5,1.1,1.1c0,0.6-0.5,1.1-1.1,1.1c-0.6,0-1.1-0.5-1.1-1.1
			C-230.8,428.2-230.3,427.7-229.7,427.7z M-230.2,428.8c0,0.2,0.1,0.4,0.4,0.4c0.3,0,0.4-0.1,0.5-0.4c0-0.3-0.1-0.5-0.4-0.5
			C-230,428.4-230.1,428.5-230.2,428.8z"/>
		<path class="st2" d="M-234.5,428.8c0,0.6-0.5,1.1-1.1,1.1c-0.6,0-1.1-0.5-1.1-1.1c0-0.6,0.5-1.1,1.1-1.1
			C-235,427.7-234.5,428.2-234.5,428.8z M-235.6,428.4c-0.2,0-0.4,0.2-0.4,0.4c0,0.3,0.2,0.4,0.5,0.4c0.3,0,0.4-0.2,0.4-0.4
			C-235.2,428.5-235.3,428.4-235.6,428.4z"/>
		<path class="st2" d="M-241.8,410.8c0,0.3-0.2,0.5-0.5,0.4c-0.2,0-0.4-0.2-0.4-0.4c0-0.3,0.2-0.5,0.4-0.5
			C-242,410.3-241.8,410.5-241.8,410.8z"/>
		<path class="st2" d="M-244,410.3c0.3,0.1,0.5,0.2,0.4,0.5c0,0.3-0.2,0.4-0.5,0.4c-0.2,0-0.4-0.2-0.4-0.4
			C-244.4,410.5-244.2,410.4-244,410.3z"/>
		<path class="st2" d="M-245.2,410.8c0,0.3-0.2,0.5-0.5,0.5c-0.3,0-0.4-0.2-0.4-0.5c0-0.3,0.2-0.4,0.4-0.4
			C-245.4,410.3-245.3,410.5-245.2,410.8z"/>
	</g>
</g>
<g id="Ecommerce_2">
	<rect x="-247.7" y="381.4" class="st0" width="29" height="24.3"/>
	<g>
		<path class="st2" d="M-233.2,381.4c4.2,0,8.3,0,12.5,0c1.2,0,2,0.8,2,2c0,6.8,0,13.5,0,20.3c0,1.2-0.8,2-2,2c-8.4,0-16.7,0-25.1,0
			c-1.2,0-1.9-0.8-1.9-2c0-6.7,0-13.5,0-20.2c0-1.3,0.8-2.1,2.1-2.1C-241.5,381.4-237.3,381.4-233.2,381.4
			C-233.2,381.4-233.2,381.4-233.2,381.4z M-233.2,405C-233.2,405-233.2,405-233.2,405c2.3,0,4.5,0,6.8,0c1.9,0,3.8,0,5.7,0
			c0.9,0,1.4-0.5,1.4-1.4c0-0.2,0-0.4,0-0.6c0-5.6,0-11.1,0-16.7c0-0.6,0-0.6-0.6-0.6c-8.7,0-17.5,0-26.2,0c-0.2,0-0.4,0-0.6,0
			c-0.2,0-0.3,0.1-0.3,0.3c0,0.1,0,0.3,0,0.4c0,5.7,0,11.4,0,17.1c0,1,0.5,1.5,1.5,1.5C-241.5,405-237.4,405-233.2,405z
			 M-233.2,385.1C-233.2,385.1-233.2,385.1-233.2,385.1c4.4,0,8.8,0,13.2,0c0.1,0,0.2,0,0.3,0c0.2,0,0.4-0.1,0.4-0.4
			c0-0.4,0-0.7,0-1.1c0-1.2-0.4-1.6-1.6-1.6c-6,0-12,0-18,0c-2.3,0-4.5,0-6.8,0c-0.9,0-1.4,0.5-1.4,1.4c0,0.3,0,0.7,0,1
			c0,0.7,0,0.7,0.7,0.7C-242,385.1-237.6,385.1-233.2,385.1z"/>
		<path class="st2" d="M-232.5,399.7c-1.2,0-2.4,0-3.6,0c-0.8,0-1.1-0.3-1.3-1c-0.7-3-1.3-5.9-1.9-8.9c-0.2-0.7-0.2-0.8-1-0.8
			c-0.1,0-0.1,0-0.2,0c-0.2,0-0.5,0-0.4-0.3c0-0.3,0.2-0.3,0.4-0.3c0.2,0,0.5,0,0.7,0c0.5,0.1,0.8,0.3,0.9,0.8
			c0.1,0.3,0.2,0.6,0.2,0.9c0.1,0.4,0.3,0.5,0.6,0.5c2.2,0,4.4,0,6.5,0c1.6,0,3.1,0,4.6,0c0.6,0,0.7,0.1,0.6,0.8
			c-0.4,1.6-0.9,3.2-1.3,4.8c-0.2,0.7-0.5,1-1.2,1c-1.8,0.2-3.6,0.3-5.5,0.5c-0.7,0.1-1.4,0.1-2.2,0.2c-0.2,0-0.5-0.1-0.5,0.3
			c0,0.4,0.2,0.8,0.6,0.8c0.2,0,0.3,0,0.5,0c2.3,0,4.6,0,6.9,0c0.3,0,0.6-0.1,0.6,0.3c0,0.4-0.4,0.3-0.6,0.3
			C-230.1,399.7-231.3,399.7-232.5,399.7z"/>
		<path class="st2" d="M-229.7,400.5c0.6,0,1.1,0.5,1.1,1.1c0,0.6-0.5,1.1-1.1,1.1c-0.6,0-1.1-0.5-1.1-1.1
			C-230.8,401-230.3,400.5-229.7,400.5z M-230.2,401.6c0,0.2,0.1,0.4,0.4,0.4c0.3,0,0.4-0.1,0.5-0.4c0-0.3-0.1-0.5-0.4-0.5
			C-230,401.2-230.1,401.3-230.2,401.6z"/>
		<path class="st2" d="M-234.5,401.6c0,0.6-0.5,1.1-1.1,1.1c-0.6,0-1.1-0.5-1.1-1.1c0-0.6,0.5-1.1,1.1-1.1
			C-235,400.5-234.5,401-234.5,401.6z M-235.6,401.2c-0.2,0-0.4,0.2-0.4,0.4c0,0.3,0.2,0.4,0.5,0.4c0.3,0,0.4-0.2,0.4-0.4
			C-235.2,401.3-235.3,401.2-235.6,401.2z"/>
		<path class="st2" d="M-241.8,383.6c0,0.3-0.2,0.5-0.5,0.4c-0.2,0-0.4-0.2-0.4-0.4c0-0.3,0.2-0.5,0.4-0.5
			C-242,383.2-241.8,383.3-241.8,383.6z"/>
		<path class="st2" d="M-244,383.1c0.3,0.1,0.5,0.2,0.4,0.5c0,0.3-0.2,0.4-0.5,0.4c-0.2,0-0.4-0.2-0.4-0.4
			C-244.4,383.3-244.2,383.2-244,383.1z"/>
		<path class="st2" d="M-245.2,383.6c0,0.3-0.2,0.5-0.5,0.5c-0.3,0-0.4-0.2-0.4-0.5c0-0.3,0.2-0.4,0.4-0.4
			C-245.4,383.2-245.3,383.3-245.2,383.6z"/>
	</g>
</g>
<g id="UI__x2F__UX">
	<rect x="-283" y="437.4" class="st0" width="29" height="24.3"/>
	<g>
		<path class="st1" d="M-280.4,449.5v-5.3c0-0.2,0.2-0.4,0.4-0.4s0.4,0.2,0.4,0.4v5.3c0,0.9,0.3,1.9,2,1.9c1.6,0,2-0.9,2-1.9v-5.3
			c0-0.2,0.2-0.4,0.4-0.4c0.2,0,0.4,0.2,0.4,0.4v5.3c0,1.3-0.5,2.6-2.8,2.6C-279.9,452.1-280.4,450.8-280.4,449.5z"/>
		<path class="st1" d="M-272.1,451.6c0,0.2-0.2,0.4-0.4,0.4s-0.4-0.2-0.4-0.4v-7.4c0-0.2,0.2-0.4,0.4-0.4s0.4,0.2,0.4,0.4V451.6z"/>
	</g>
	<g id="UX_border" class="st3">
		<path class="st4" d="M-268.5,461.7c-4.1,0-8.2,0-12.3,0c-1.4,0-2.2-0.7-2.2-2.2c0-6.6,0-13.3,0-19.9c0-1.5,0.7-2.2,2.2-2.2
			c8.2,0,16.5,0,24.7,0c1.3,0,2.1,0.8,2.1,2c0,6.7,0,13.4,0,20.1c0,1.4-0.7,2.2-2.2,2.2C-260.3,461.7-264.4,461.7-268.5,461.7z
			 M-268.5,441.7L-268.5,441.7c-3.9,0-7.7,0-11.6,0c-0.6,0-1.3,0-1.9,0c-0.3,0-0.4,0.1-0.4,0.4c0,0.3,0,0.5,0,0.8
			c0,5.5,0,11.1,0,16.6c0,1.1,0.5,1.5,1.5,1.5c6.7,0,13.4,0,20.1,0c1.6,0,3.2,0,4.7,0c0.8,0,1.3-0.5,1.3-1.3c0-0.2,0-0.3,0-0.5
			c0-5.6,0-11.2,0-16.9c0-0.6,0-0.6-0.6-0.6C-259.6,441.7-264.1,441.7-268.5,441.7z M-268.5,441.1c4,0,8,0,12,0c0.5,0,1,0,1.5,0
			c0.3,0,0.4-0.1,0.4-0.4c0-0.4,0-0.7,0-1.1c0-1.2-0.4-1.6-1.6-1.6c-4.9,0-9.9,0-14.8,0c-3.3,0-6.6,0-9.9,0c-1,0-1.5,0.5-1.5,1.4
			c0,0.3,0,0.7,0,1c0,0.7,0,0.7,0.7,0.7C-277.3,441.1-272.9,441.1-268.5,441.1z"/>
		<path class="st4" d="M-280.5,439.5c0,0.3-0.2,0.4-0.5,0.4c-0.2,0-0.4-0.2-0.4-0.5c0-0.3,0.2-0.4,0.5-0.4
			C-280.7,439-280.5,439.2-280.5,439.5z"/>
		<path class="st4" d="M-279.2,439c0.2,0,0.4,0.2,0.4,0.4c0,0.3-0.2,0.5-0.4,0.5c-0.3,0-0.4-0.2-0.5-0.4
			C-279.7,439.2-279.5,439.1-279.2,439z"/>
		<path class="st4" d="M-277.1,439.4c0,0.3-0.2,0.5-0.4,0.5c-0.3,0-0.5-0.2-0.5-0.4c0-0.3,0.2-0.4,0.4-0.5
			C-277.3,439-277.1,439.2-277.1,439.4z"/>
	</g>
	<g>
		<path class="st1" d="M-281.7,441.1c-0.7,0-0.7,0-0.7-0.7c0-0.3,0-0.7,0-1c0-0.9,0.5-1.4,1.5-1.4c3.3,0,6.6,0,9.9,0
			c2.2,0,4.4,0,6.6,0l0.2-0.6c-5.6,0-11.1,0-16.7,0c-1.5,0-2.2,0.7-2.2,2.2c0,6.6,0,13.3,0,19.9c0,1.5,0.8,2.2,2.2,2.2
			c2.5,0,5.1,0,7.6,0l0.3-0.7c-2.6,0-5.3,0-7.9,0c-1,0-1.5-0.4-1.5-1.5c0-5.5,0-11.1,0-16.6c0-0.3,0-0.5,0-0.8s0.1-0.4,0.4-0.4
			c0.6,0,1.3,0,1.9,0c3.9,0,7.7,0,11.6,0c0.9,0,1.8,0,2.7,0l0.2-0.6c-1,0-2,0-3,0C-272.9,441.1-277.3,441.1-281.7,441.1z"/>
		<path class="st1" d="M-254,439v21.1c0-0.2,0.1-0.4,0.1-0.6c0-6.7,0-13.4,0-20.1C-254,439.3-254,439.1-254,439z"/>
		<path class="st1" d="M-280.9,439c-0.3,0-0.5,0.1-0.5,0.4s0.2,0.5,0.4,0.5c0.3,0,0.5-0.1,0.5-0.4C-280.5,439.2-280.7,439-280.9,439
			z"/>
		<path class="st1" d="M-279.2,439c-0.3,0.1-0.5,0.2-0.5,0.5c0.1,0.2,0.2,0.4,0.5,0.4c0.2,0,0.4-0.2,0.4-0.5
			C-278.8,439.2-279,439-279.2,439z"/>
		<path class="st1" d="M-277.6,439c-0.2,0.1-0.4,0.2-0.4,0.5c0,0.2,0.2,0.4,0.5,0.4c0.2,0,0.4-0.2,0.4-0.5
			C-277.1,439.2-277.3,439-277.6,439z"/>
		<path class="st1" d="M-260.8,461c1.6,0,3.2,0,4.7,0c0.8,0,1.3-0.5,1.3-1.3c0-0.2,0-0.3,0-0.5c0-5.6,0-11.2,0-16.9
			c0-0.6,0-0.6-0.6-0.6c-3.3,0-6.8,0-10.4,0l-7.2,19.3C-268.9,461-264.8,461-260.8,461z M-261.6,458.2l2.2-3.3l-2.1-3.1
			c0,0-0.1-0.1-0.1-0.2c0-0.2,0.2-0.4,0.4-0.4c0.2,0,0.3,0.1,0.3,0.2l1.8,2.8l1.8-2.8c0.1-0.1,0.2-0.2,0.3-0.2
			c0.2,0,0.4,0.2,0.4,0.4c0,0.1,0,0.2-0.1,0.2l-2.1,3.1l2.2,3.3c0,0.1,0.1,0.1,0.1,0.2c0,0.2-0.2,0.4-0.4,0.4
			c-0.1,0-0.2-0.1-0.3-0.1l-2-3.1l-2,3.1c-0.1,0.1-0.2,0.1-0.3,0.1c-0.2,0-0.4-0.2-0.4-0.4C-261.7,458.3-261.6,458.2-261.6,458.2z
			 M-267.3,451.2c0.2,0,0.4,0.2,0.4,0.4v4.9c0,0.9,0.3,1.7,1.8,1.7c1.5,0,1.8-0.8,1.8-1.7v-4.9c0-0.2,0.2-0.4,0.4-0.4
			s0.4,0.2,0.4,0.4v4.9c0,1.2-0.5,2.4-2.6,2.4c-2.1,0-2.6-1.2-2.6-2.4v-4.9C-267.7,451.3-267.6,451.2-267.3,451.2z"/>
		<path class="st1" d="M-256.2,438c-2.7,0-5.4,0-8.2,0l-1.2,3.1c3,0,6,0,9,0c0.5,0,1,0,1.5,0c0.3,0,0.4-0.1,0.4-0.4
			c0-0.4,0-0.7,0-1.1C-254.6,438.4-255,438-256.2,438z"/>
	</g>
	<line class="st5" x1="-268.5" y1="461.7" x2="-268.5" y2="437.4"/>
</g>
<g id="Web_develpment">
	<rect x="-208" y="408.6" class="st6" width="29" height="24.3"/>
	<g>
		<path class="st2" d="M-193.5,408.6c4.4,0,8.8,0,13.2,0c0.9,0,1.2,0.3,1.2,1.3c0,7.2,0,14.4,0,21.6c0,0,0,0.1,0,0.1
			c0,1.1-0.3,1.4-1.3,1.4c-2.8,0-5.6,0-8.4,0c-6,0-12,0-17.9,0c-1,0-1.3-0.3-1.3-1.3c0-7.2,0-14.4,0-21.6c0-1,0.3-1.3,1.3-1.3
			C-202.3,408.6-197.9,408.6-193.5,408.6z M-193.5,413c-4.4,0-8.8,0-13.2,0c-0.7,0-0.7,0-0.7,0.7c0,5.9,0,11.9,0,17.8
			c0,0.7,0,0.8,0.8,0.8c8.7,0,17.5,0,26.2,0c0.7,0,0.7,0,0.7-0.7c0-6,0-11.9,0-17.9c0-0.6,0-0.6-0.6-0.6
			C-184.7,413-189.1,413-193.5,413z M-193.5,412.6C-193.5,412.6-193.5,412.6-193.5,412.6c3.6,0,7.2,0,10.9,0c0.9,0,1.7,0,2.6,0
			c0.3,0,0.4-0.1,0.4-0.4c0-0.8,0-1.6,0-2.5c0-0.4-0.2-0.5-0.5-0.5c-0.3,0-0.5,0-0.8,0c-5.8,0-11.6,0-17.4,0c-2.8,0-5.5,0-8.3,0
			c-0.7,0-0.7,0-0.7,0.8c0,0.6,0,1.3,0,1.9c0,0.7,0,0.7,0.6,0.7C-202.3,412.6-197.9,412.6-193.5,412.6z"/>
		<path class="st2" d="M-193.3,422.5c0,2.4,0,4.9,0,7.3c0,0.6,0,0.7-0.6,0.7c-3.8,0-7.5,0-11.3,0c-0.5,0-0.6,0-0.6-0.6
			c0-5,0-9.9,0-14.9c0-0.5,0.1-0.6,0.6-0.6c3.8,0,7.5,0,11.3,0c0.5,0,0.6,0,0.6,0.6C-193.3,417.6-193.3,420.1-193.3,422.5z"/>
		<path class="st2" d="M-186.6,414.5c1.6,0,3.1,0,4.7,0c0.5,0,0.6,0,0.6,0.6c0,2.1,0,4.1,0,6.2c0,0.5-0.1,0.5-0.5,0.5
			c-3.1,0-6.3,0-9.4,0c-0.5,0-0.6-0.1-0.6-0.6c0-2.1,0-4.1,0-6.2c0-0.5,0.1-0.6,0.6-0.6C-189.7,414.5-188.2,414.5-186.6,414.5z
			 M-186.6,421.3C-186.6,421.3-186.6,421.3-186.6,421.3c1.5,0,2.9,0,4.4,0c0.3,0,0.5-0.1,0.5-0.5c0-1.8,0-3.6,0-5.4
			c0-0.4-0.1-0.5-0.5-0.5c-2.9,0-5.8,0-8.7,0c-0.4,0-0.5,0.1-0.5,0.5c0,1.8,0,3.6,0,5.3c0,0.4,0.1,0.5,0.5,0.5
			C-189.5,421.3-188,421.3-186.6,421.3z"/>
		<path class="st2" d="M-186.6,430.5c-1.6,0-3.1,0-4.7,0c-0.5,0-0.6,0-0.6-0.6c0-2,0-4.1,0-6.1c0-0.5,0-0.6,0.6-0.6
			c3.1,0,6.3,0,9.4,0c0.5,0,0.6,0,0.6,0.6c0,2,0,4.1,0,6.1c0,0.6,0,0.6-0.6,0.6C-183.5,430.5-185,430.5-186.6,430.5z M-186.6,423.7
			c-1.4,0-2.9,0-4.3,0c-0.4,0-0.5,0.1-0.5,0.5c0,1.8,0,3.5,0,5.3c0,0.4,0.1,0.5,0.5,0.5c2.9,0,5.8,0,8.7,0c0.3,0,0.5-0.1,0.5-0.5
			c0-1.8,0-3.5,0-5.3c0-0.5,0-0.5-0.5-0.5C-183.8,423.7-185.2,423.7-186.6,423.7z"/>
		<path class="st2" d="M-203.5,411c0,0.3-0.3,0.6-0.6,0.6c-0.3,0-0.6-0.3-0.6-0.6c0-0.3,0.3-0.6,0.6-0.6
			C-203.7,410.4-203.5,410.6-203.5,411z"/>
		<path class="st2" d="M-202.4,410.4c0.3,0,0.6,0.3,0.6,0.6c0,0.3-0.3,0.6-0.6,0.6c-0.3,0-0.5-0.3-0.5-0.6
			C-203,410.6-202.7,410.4-202.4,410.4z"/>
		<path class="st2" d="M-205.2,411c0,0.3-0.3,0.6-0.6,0.6c-0.3,0-0.6-0.3-0.6-0.6c0-0.3,0.3-0.6,0.6-0.6
			C-205.4,410.4-205.2,410.6-205.2,411z"/>
	</g>
</g>
</svg>
