<?xml version="1.0" encoding="utf-8"?>
<!-- Generator: Adobe Illustrator 19.0.0, SVG Export Plug-In . SVG Version: 6.00 Build 0)  -->
<svg version="1.1" id="Capa_1" xmlns="http://www.w3.org/2000/svg" xmlns:xlink="http://www.w3.org/1999/xlink" x="0px" y="0px"
	 viewBox="0 0 412 103.6" style="enable-background:new 0 0 412 103.6;" xml:space="preserve">
<style type="text/css">
	.st0{fill:#0F2838;}
</style>
<g id="XMLID_2_">
	<path id="XMLID_41_" class="st0" d="M0.1,49.4L0.1,49.4l0-0.2C0.1,49.3,0.1,49.4,0.1,49.4z"/>
	<path id="XMLID_40_" class="st0" d="M8.7,49.3v0.2h0C8.7,49.4,8.7,49.3,8.7,49.3z"/>
	<path id="XMLID_39_" class="st0" d="M35,20.7v7.6c0,2-2.1,3.5-4.5,3.5S26,30.2,26,28.2v-7.6c0-0.8,0.2-1.4,0.7-2
		c0.8-0.9,2-1.5,3.5-1.5c1.5,0,3,0.6,3.8,1.5C34.5,19.2,35,19.9,35,20.7z"/>
	<path id="XMLID_38_" class="st0" d="M0.1,49.4L0.1,49.4l0-0.2C0.1,49.3,0.1,49.4,0.1,49.4z"/>
	<path id="XMLID_37_" class="st0" d="M8.7,49.3v0.2h0C8.7,49.4,8.7,49.3,8.7,49.3z"/>
	<path id="XMLID_36_" class="st0" d="M69,28.7v2c0,2-2.1,3.5-4.5,3.5c-2.4,0-4.5-1.6-4.5-3.5v-2c0-2,2.1-3.5,4.5-3.5
		C66.9,25.2,69,26.8,69,28.7z"/>
	<path id="XMLID_35_" class="st0" d="M103,16.1v5.6c0,2-2.1,3.5-4.5,3.5S94,23.6,94,21.7v-5.6c0-2,2.1-3.5,4.5-3.5
		S103,14.2,103,16.1z"/>
	<path id="XMLID_34_" class="st0" d="M103.2,54L103.2,54l0-0.2C103.2,53.9,103.2,53.9,103.2,54z"/>
	<path id="XMLID_33_" class="st0" d="M111.8,53.8V54h0C111.8,53.9,111.8,53.9,111.8,53.8z"/>
	<path id="XMLID_32_" class="st0" d="M138,25.2v7.6c0,2-2.1,3.5-4.5,3.5c-2.4,0-4.5-1.6-4.5-3.5v-7.6c0-0.8,0.3-1.4,0.8-2
		c0.8-0.9,2.1-1.5,3.5-1.5c1.5,0,3,0.6,3.7,1.5C137.5,23.8,138,24.5,138,25.2z"/>
	<path id="XMLID_31_" class="st0" d="M103.2,54L103.2,54l0-0.2C103.2,53.9,103.2,53.9,103.2,54z"/>
	<path id="XMLID_30_" class="st0" d="M111.8,53.8V54h0C111.8,53.9,111.8,53.9,111.8,53.8z"/>
	<path id="XMLID_29_" class="st0" d="M172,33.3v2c0,2-1.6,3.5-4,3.5s-4-1.6-4-3.5v-2c0-2,1.6-3.5,4-3.5S172,31.3,172,33.3z"/>
	<path id="XMLID_28_" class="st0" d="M206,20.7v5.6c0,2-2.1,3.5-4.5,3.5s-4.5-1.6-4.5-3.5v-5.6c0-2,2.1-3.5,4.5-3.5
		S206,18.7,206,20.7z"/>
	<path id="XMLID_27_" class="st0" d="M206.3,47.9L206.3,47.9l0-0.2C206.3,47.8,206.3,47.9,206.3,47.9z"/>
	<path id="XMLID_26_" class="st0" d="M214.9,47.8v0.2h0C214.9,47.9,214.9,47.8,214.9,47.8z"/>
	<path id="XMLID_25_" class="st0" d="M241,6v7.6c0,2-2.1,3.5-4.5,3.5c-2.4,0-4.5-1.6-4.5-3.5V6c0-0.8,0.3-1.4,0.8-2
		c0.8-0.9,2.1-1.5,3.5-1.5c1.5,0,2.9,0.6,3.7,1.5C240.5,4.6,241,5.3,241,6z"/>
	<path id="XMLID_24_" class="st0" d="M206.3,47.9L206.3,47.9l0-0.2C206.3,47.8,206.3,47.9,206.3,47.9z"/>
	<path id="XMLID_23_" class="st0" d="M214.9,47.8v0.2h0C214.9,47.9,214.9,47.8,214.9,47.8z"/>
	<path id="XMLID_22_" class="st0" d="M275,27.2v2c0,2-1.6,3.5-4,3.5s-4-1.6-4-3.5v-2c0-2,1.6-3.5,4-3.5S275,25.3,275,27.2z"/>
	<path id="XMLID_21_" class="st0" d="M309,14.6v5.6c0,2-1.6,3.5-4,3.5s-4-1.6-4-3.5v-5.6c0-2,1.6-3.5,4-3.5S309,12.7,309,14.6z"/>
	<path id="XMLID_20_" class="st0" d="M309.4,52.5L309.4,52.5l0-0.2C309.4,52.4,309.4,52.4,309.4,52.5z"/>
	<path id="XMLID_19_" class="st0" d="M318,52.3v0.2h0C318,52.4,318,52.4,318,52.3z"/>
	<path id="XMLID_18_" class="st0" d="M344,23.7v7.6c0,2-2.1,3.5-4.5,3.5c-2.4,0-4.5-1.6-4.5-3.5v-7.6c0-0.8,0.4-1.4,0.9-2
		c0.8-0.9,2.1-1.5,3.6-1.5c1.5,0,2.9,0.6,3.7,1.5C343.6,22.2,344,22.9,344,23.7z"/>
	<path id="XMLID_17_" class="st0" d="M309.4,52.5L309.4,52.5l0-0.2C309.4,52.4,309.4,52.4,309.4,52.5z"/>
	<path id="XMLID_16_" class="st0" d="M318,52.3v0.2h0C318,52.4,318,52.4,318,52.3z"/>
	<path id="XMLID_15_" class="st0" d="M378,31.8v2c0,2-1.6,3.5-4,3.5s-4-1.6-4-3.5v-2c0-2,1.6-3.5,4-3.5S378,29.8,378,31.8z"/>
	<path id="XMLID_14_" class="st0" d="M412,8v5.6c0,2-1.6,3.5-4,3.5s-4-1.6-4-3.5V8c0-2,1.6-3.5,4-3.5S412,6.1,412,8z"/>
	<path id="XMLID_11_" class="st0" d="M103.2,53.8V54h0C103.2,53.9,103.2,53.9,103.2,53.8z M111.8,54L111.8,54l0-0.2
		C111.8,53.9,111.8,53.9,111.8,54z"/>
	<path id="XMLID_3_" class="st0" d="M408,21.2c-2.4,0-4,1.6-4,3.5v38.4c0,2-2.1,3.5-4.5,3.5S395,65,395,63.1V23.7c0-2-1.6-3.5-4-3.5
		c-2.4,0-4,1.6-4,3.5v25.2c0,2-2.1,3.5-4.5,3.5s-4.5-1.6-4.5-3.5v-4c0-2-1.6-3.5-4-3.5s-4,1.6-4,3.5v14.6c0,2-2.1,3.5-4.5,3.5
		s-4.5-1.6-4.5-3.5V36.8c0-2-2.1-3.5-4.5-3.5s-4.5,1.6-4.5,3.5v12.6c0,2-1.6,3.5-4,3.5s-4-1.6-4-3.5v-6.6c0-2-2.1-3.5-4.5-3.5
		c-2.4,0-4.5,1.6-4.5,3.5v26.8c0,2-2.1,3.5-4.5,3.5s-4.5-1.6-4.5-3.5V30.3c0-2-1.6-3.5-4-3.5c-2.4,0-4,1.6-4,3.5v9.1
		c0,2-2.1,3.5-4.5,3.5s-4.5-1.6-4.5-3.5v-9.1c0-2-1.6-3.5-4-3.5s-4,1.6-4,3.5v28.3c0,2-2.1,3.5-4.5,3.5c-2.4,0-4.5-1.6-4.5-3.5V19.1
		c0-2-2.1-3.5-4.5-3.5c-2.4,0-4.5,1.6-4.5,3.5v25.2c0,2-1.6,3.5-4,3.5c-2.4,0-4-1.6-4-3.5v-4c0-2-1.6-3.5-4-3.5s-4,1.6-4,3.5V55
		c0,2-2.1,3.5-4.5,3.5S258,57,258,55V32.3c0-2-2.1-3.5-4.5-3.5s-4.5,1.6-4.5,3.5v12.6c0,2-1.6,3.5-4,3.5s-4-1.6-4-3.5V24.7
		c0-2-2.1-3.5-4.5-3.5c-2.4,0-4.5,1.6-4.5,3.5v40.4c0,2-2.1,3.5-4.5,3.5s-4.5-1.6-4.5-3.5V25.7c0-2-2.1-3.5-4.5-3.5
		c-2.4,0-4.5,1.6-4.5,3.5v9.1c0,2-1.6,3.5-4,3.5s-4-1.6-4-3.5v1.5c0-2-2.1-3.5-4.5-3.5s-4.5,1.6-4.5,3.5v28.3c0,2-1.6,3.5-4,3.5
		c-2.4,0-4-1.6-4-3.5V25.2c0-2-2.1-3.5-4.5-3.5c-2.4,0-4.5,1.6-4.5,3.5v25.2c0,2-1.6,3.5-4,3.5s-4-1.6-4-3.5v-4c0-2-1.6-3.5-4-3.5
		s-4,1.6-4,3.5v14.6c0,2-2.1,3.5-4.5,3.5c-2.4,0-4.5-1.6-4.5-3.5V38.8c0-2-2.1-3.5-4.5-3.5c-2.4,0-4.5,1.6-4.5,3.5V51
		c0,2-1.6,3.5-4,3.5s-4-1.6-4-3.5v-6.6c0-2-2.1-3.5-4.5-3.5c-2.4,0-4.5,1.6-4.5,3.5v26.8c0,2-1.6,3.5-4,3.5c-2.4,0-4-1.6-4-3.5V36.8
		c0-2-2.1-3.5-4.5-3.5s-4.5,1.6-4.5,3.5v2.5c0,2-2.1,3.5-4.5,3.5c-2.4,0-4.5-1.6-4.5-3.5v-7.6c0-2-2.1-3.5-4.5-3.5S94,29.8,94,31.8
		v28.3c0,2-1.6,3.5-4,3.5s-4-1.6-4-3.5V20.7c0-2-2.1-3.5-4.5-3.5c-2.4,0-4.5,1.6-4.5,3.5v21.2c0,2-1.7,3.5-4.1,3.5
		c-2.4,0-4.2-1.6-4.2-3.5c0-2-2-3.5-4.4-3.5c-2.4,0-4.4,1.6-4.4,3.5v14.6c0,2-1.6,3.5-4,3.5s-4-1.6-4-3.5V33.8c0-2-2.1-3.5-4.5-3.5
		S43,31.8,43,33.8v12.6c0,2-1.6,3.5-4,3.5c-2.4,0-4-1.6-4-3.5v-6.6c0-2-2.1-3.5-4.5-3.5S26,37.9,26,39.9v26.8c0,2-2.1,3.5-4.5,3.5
		S17,68.6,17,66.6V27.2c0-2-2.1-3.5-4.5-3.5S8,25.3,8,27.2v9.1c0,2-1.6,3.5-4,3.5s-4-1.6-4-3.5v13c0,0.1,0.1,0.3,0.1,1.3H0v53h412
		V24.7C412,22.8,410.4,21.2,408,21.2z M103.2,54v-0.2C103.2,53.9,103.2,53.9,103.2,54L103.2,54z M111.8,54L111.8,54
		c0-0.1,0-0.1,0-0.2V54z M206.3,47.9v-0.2C206.3,47.8,206.3,47.9,206.3,47.9L206.3,47.9z M214.9,47.9L214.9,47.9c0-0.1,0-0.1,0-0.2
		V47.9z M309.4,52.5v-0.2C309.4,52.4,309.4,52.4,309.4,52.5L309.4,52.5z M318,52.5L318,52.5c0-0.1,0-0.1,0-0.2V52.5z"/>
</g>
</svg>
