<?xml version="1.0" encoding="utf-8"?>
<!-- Generator: Adobe Illustrator 16.0.3, SVG Export Plug-In . SVG Version: 6.00 Build 0)  -->
<!DOCTYPE svg PUBLIC "-//W3C//DTD SVG 1.1//EN" "http://www.w3.org/Graphics/SVG/1.1/DTD/svg11.dtd">
<svg version="1.1" id="Capa_1" xmlns="http://www.w3.org/2000/svg" xmlns:xlink="http://www.w3.org/1999/xlink" x="0px" y="0px"
	 width="91.834px" height="14.001px" viewBox="0 0 91.834 14.001" enable-background="new 0 0 91.834 14.001" xml:space="preserve">
<path fill="#0C1A21" d="M1601,131.675c-8,8.49-25,7.395-25,7.395v0.046c-14,0.046-21.058-7.44-21.058-7.44
	c-7.516,8.49-23.214,7.395-23.214,7.395l2.955,0.046c-14.09,0.046-22.401-7.44-22.401-7.44c-7.516,8.49-24.282,7.395-24.282,7.395
	v0.046c-14,0.046-21.059-7.44-21.059-7.44c-7.516,8.49-22.941,7.395-22.941,7.395v0.046c-15,0.046-21.559-7.44-21.559-7.44
	c-7.514,8.49-23.441,7.395-23.441,7.395v0.046c-14,0.046-21.323-7.44-21.323-7.44c-7.518,8.49-23.345,7.395-23.345,7.395
	l2.887,0.046c-14.092,0.046-22.169-7.44-22.169-7.44c-7.516,8.49-24.05,7.395-24.05,7.395v0.046c-14,0.046-21.059-7.44-21.059-7.44
	c-7.516,8.49-22.941,7.395-22.941,7.395v0.046c-15,0.046-21.559-7.44-21.559-7.44c-7.518,8.49-23.441,7.395-23.441,7.395v0.046
	c-14,0.046-21.589-7.44-21.589-7.44c-7.516,8.49-23.479,7.395-23.479,7.395l2.822,0.046c-14.09,0.046-22.437-7.44-22.437-7.44
	c-7.516,8.49-24.317,7.395-24.317,7.395v0.046c-14,0.046-21.559-7.44-21.559-7.44c-7.516,8.49-23.441,7.395-23.441,7.395v0.046
	c-14,0.046-21.059-7.44-21.059-7.44c-7.516,8.49-22.941,7.395-22.941,7.395v0.046c-15,0.046-21.354-7.44-21.354-7.44
	c-7.518,8.49-23.36,7.395-23.36,7.395l2.879,0.046c-14.092,0.046-22.142-7.44-22.142-7.44c-7.516,8.49-24.022,7.395-24.022,7.395
	v0.046c-14,0.046-21.561-7.44-21.561-7.44c-7.514,8.49-23.439,7.395-23.439,7.395v0.046c-14,0.046-21.061-7.44-21.061-7.44
	c-7.516,8.49-22.939,7.395-22.939,7.395v0.046c-15,0.046-21.624-7.44-21.624-7.44c-7.512,8.49-23.491,7.395-23.491,7.395
	l2.813,0.046c-14.089,0.046-21.908-7.44-21.908-7.44c-7.515,8.49-23.789,7.395-23.789,7.395v0.046c-14,0.046-21.56-7.44-21.56-7.44
	c-7.515,8.49-23.44,7.395-23.44,7.395v0.046c-14,0.046-21.559-7.44-21.559-7.44c-7.516,8.49-23.441,7.395-23.441,7.395v0.046
	c-14,0.046-21.388-7.44-21.388-7.44c-7.516,8.49-23.374,7.395-23.374,7.395l2.871,0.046c-14.091,0.046-22.115-7.44-22.115-7.44
	c-7.515,8.49-23.994,7.395-23.994,7.395v0.046c-14,0.046-21.561-7.44-21.561-7.44c-7.514,8.49-23.439,7.395-23.439,7.395v0.046
	c-13,0.046-21.561-7.44-21.561-7.44c-7.514,8.49-23.439,7.395-23.439,7.395v0.046c-14,0.046-21.153-7.44-21.153-7.44
	c-7.516,8.49-23.259,7.395-23.259,7.395l2.931,0.046c-14.092,0.046-21.82-7.44-21.82-7.44c-7.516,8.49-23.698,7.395-23.698,7.395
	v0.046c-14,0.046-22.061-7.44-22.061-7.44c-7.514,8.49-23.939,7.395-23.939,7.395v0.046c-14,0.046-21.561-7.44-21.561-7.44
	c-7.514,8.49-23.439,7.395-23.439,7.395v0.046c-14,0.046-20.919-7.44-20.919-7.44c-7.516,8.49-23.142,7.395-23.142,7.395l0,0
	c-14.09,0.046-19.035-7.395-19.035-7.395c-7.514,8.49-23.904,7.395-23.904,7.395v0.046c-14,0.046-21.101-7.44-21.101-7.44
	c-7.513,8.49-22.899,7.419-22.899,7.419v0.25v58.655h1399v-58.655V131.675z"/>
<rect x="201.969" y="38.999" fill="none" stroke="#1E8DBD" stroke-miterlimit="10" width="217.5" height="53.75"/>
<line fill="none" stroke="#1E8DBD" stroke-miterlimit="10" x1="225.792" y1="122.708" x2="202.833" y2="122.708"/>
<line fill="none" stroke="#1E8DBD" stroke-miterlimit="10" x1="248.063" y1="123.041" x2="225.104" y2="123.041"/>
<path fill="none" stroke="#1E8DBD" stroke-miterlimit="10" d="M224.958,125.583"/>
<ellipse fill="none" stroke="#1E8DBD" stroke-miterlimit="10" cx="425" cy="125.437" rx="25" ry="15.063"/>
<ellipse fill="none" stroke="#1E8DBD" stroke-miterlimit="10" cx="475" cy="125.437" rx="25" ry="15.063"/>
<rect x="390.973" y="125.437" fill="none" stroke="#1E8DBD" stroke-miterlimit="10" width="116.152" height="26.188"/>
<path fill="none" stroke="#1E8DBD" stroke-miterlimit="10" d="M224.958,125.708"/>
<path fill="none" stroke="#1E8DBD" stroke-miterlimit="10" d="M247.917,132.874"/>
<path fill="#0C1A21" d="M0,7.874c0,0,14.438,0.234,22.958-7.167c8.521,7.401,22.958,7.167,22.958,7.167s14.438,0.234,22.958-7.167
	c8.521,7.401,22.958,7.167,22.958,7.167v6.127H0V7.874z"/>
</svg>
